<svg viewBox="790 0 320 550" width="512" height="512" version="1.1" xmlns="http://www.w3.org/2000/svg">
<style>.vertex { font-family: Consolas } .edge { font-family: Consolas } .text { font-family: Consolas }</style>
    <path d="M 950 520L 1080 420" fill="none" stroke="#000000" stroke-width="2"></path>
    <path d="M 950 520L 820 420" fill="none" stroke="#000000" stroke-width="2"></path>
    <path d="M 820 30L 1080 30" fill="none" stroke="#000000" stroke-width="2"></path>
    <path d="M 820 120L 1080 30" fill="none" stroke="#000000" stroke-width="2"></path>
    <path d="M 820 120L 1080 220" fill="none" stroke="#000000" stroke-width="2"></path>
    <path d="M 820 30L 820 120" fill="none" stroke="#000000" stroke-width="2"></path>
    <path d="M 820 120L 820 220" fill="none" stroke="#000000" stroke-width="2"></path>
    <path d="M 820 220L 820 320" fill="none" stroke="#000000" stroke-width="2"></path>
    <path d="M 820 320L 950 520" fill="none" stroke="#000000" stroke-width="2"></path>
    <path d="M 820 320L 1080 420" fill="none" stroke="#000000" stroke-width="2"></path>
    <path d="M 820 320L 1080 320" fill="none" stroke="#000000" stroke-width="2"></path>
    <path d="M 1080 320L 820 420" fill="none" stroke="#000000" stroke-width="2"></path>
    <path d="M 820 420L 1080 220" fill="none" stroke="#000000" stroke-width="2"></path>
    <path d="M 820 420L 1080 120" fill="none" stroke="#000000" stroke-width="2"></path>
    <path d="M 1080 120L 820 30" fill="none" stroke="#000000" stroke-width="2"></path>
    <path d="M 1080 120L 1080 30" fill="none" stroke="#000000" stroke-width="2"></path>
    <path d="M 1080 30L 820 220" fill="none" stroke="#000000" stroke-width="2"></path>
    <path d="M 1080 30L 820 320" fill="none" stroke="#000000" stroke-width="2"></path>
    <path d="M 1080 220L 820 30" fill="none" stroke="#000000" stroke-width="2"></path>
    <path d="M 1080 220L 820 220" fill="none" stroke="#000000" stroke-width="2"></path>
    <path d="M 1080 420L 820 220" fill="none" stroke="#000000" stroke-width="2"></path>
    <circle cx="820" cy="30" r="20" fill="#ffc107" stroke="#000000" stroke-width="1.5"/>
    <text class="vertex" x="820" y="30" dominant-baseline="middle" text-anchor="middle" fill="#000000" font-size="18px">1</text>
    <circle cx="1080" cy="30" r="20" fill="#ffc107" stroke="#000000" stroke-width="1.5"/>
    <text class="vertex" x="1080" y="30" dominant-baseline="middle" text-anchor="middle" fill="#000000" font-size="18px">2</text>
    <circle cx="820" cy="120" r="20" fill="#ffc107" stroke="#000000" stroke-width="1.5"/>
    <text class="vertex" x="820" y="120" dominant-baseline="middle" text-anchor="middle" fill="#000000" font-size="18px">3</text>
    <circle cx="1080" cy="120" r="20" fill="#ffc107" stroke="#000000" stroke-width="1.5"/>
    <text class="vertex" x="1080" y="120" dominant-baseline="middle" text-anchor="middle" fill="#000000" font-size="18px">4</text>
    <circle cx="820" cy="220" r="20" fill="#ffc107" stroke="#000000" stroke-width="1.5"/>
    <text class="vertex" x="820" y="220" dominant-baseline="middle" text-anchor="middle" fill="#000000" font-size="18px">5</text>
    <circle cx="1080" cy="220" r="20" fill="#ffc107" stroke="#000000" stroke-width="1.5"/>
    <text class="vertex" x="1080" y="220" dominant-baseline="middle" text-anchor="middle" fill="#000000" font-size="18px">6</text>
    <circle cx="820" cy="320" r="20" fill="#ffc107" stroke="#000000" stroke-width="1.5"/>
    <text class="vertex" x="820" y="320" dominant-baseline="middle" text-anchor="middle" fill="#000000" font-size="18px">7</text>
    <circle cx="1080" cy="320" r="20" fill="#ffc107" stroke="#000000" stroke-width="1.5"/>
    <text class="vertex" x="1080" y="320" dominant-baseline="middle" text-anchor="middle" fill="#000000" font-size="18px">8</text>
    <circle cx="820" cy="420" r="20" fill="#ffc107" stroke="#000000" stroke-width="1.5"/>
    <text class="vertex" x="820" y="420" dominant-baseline="middle" text-anchor="middle" fill="#000000" font-size="18px">9</text>
    <circle cx="1080" cy="420" r="20" fill="#ffc107" stroke="#000000" stroke-width="1.5"/>
    <text class="vertex" x="1080" y="420" dominant-baseline="middle" text-anchor="middle" fill="#000000" font-size="18px">10</text>
    <circle cx="950" cy="520" r="20" fill="#ffc107" stroke="#000000" stroke-width="1.5"/>
    <text class="vertex" x="950" y="520" dominant-baseline="middle" text-anchor="middle" fill="#000000" font-size="18px">11</text>
</svg>